<?xml version="1.0" encoding="UTF-8" standalone="no"?>
<!DOCTYPE svg PUBLIC "-//W3C//DTD SVG 1.1//EN" "http://www.w3.org/Graphics/SVG/1.1/DTD/svg11.dtd">
<svg xmlns="http://www.w3.org/2000/svg" version="1.1" viewBox="0.00 0.00 200.00 200.00">
<g stroke-width="2.00" fill="none" stroke-linecap="butt">
<path stroke="#8fa0f6" vector-effect="non-scaling-stroke" d="
  M 41.64 100.00
  Q 41.64 169.46 41.67 170.29
  A 0.65 0.65 0.0 0 0 42.32 171.00
  L 157.60 171.08
  A 0.98 0.98 0.0 0 0 158.58 170.10
  L 158.58 164.09
  A 3.51 3.50 -64.8 0 0 157.78 161.86
  Q 135.75 135.13 107.52 100.76
  Q 107.28 100.46 107.28 100.00
  Q 107.28 99.54 107.52 99.24
  Q 135.75 64.86 157.77 38.13
  A 3.51 3.50 64.8 0 0 158.57 35.90
  L 158.57 29.89
  A 0.98 0.98 0.0 0 0 157.59 28.91
  L 42.31 29.01
  A 0.65 0.65 0.0 0 0 41.66 29.71
  Q 41.63 30.55 41.64 100.00"
/>
<path stroke="#8fa0f6" vector-effect="non-scaling-stroke" d="
  M 141.77 41.02
  A 0.96 0.96 0.0 0 0 141.03 39.45
  L 59.67 39.31
  A 0.96 0.96 0.0 0 0 58.93 40.88
  L 99.52 90.81
  A 0.96 0.96 0.0 0 0 101.00 90.81
  L 141.77 41.02"
/>
<path stroke="#8fa0f6" vector-effect="non-scaling-stroke" d="
  M 52.05 93.97
  A 0.82 0.82 0.0 0 0 52.87 94.79
  L 87.42 94.79
  A 0.82 0.82 0.0 0 0 88.06 93.45
  L 53.51 50.69
  A 0.82 0.82 0.0 0 0 52.05 51.21
  L 52.05 93.97"
/>
<path stroke="#8fa0f6" vector-effect="non-scaling-stroke" d="
  M 52.78 105.20
  A 0.74 0.74 0.0 0 0 52.04 105.94
  L 52.04 148.98
  A 0.74 0.74 0.0 0 0 53.36 149.45
  L 88.19 106.41
  A 0.74 0.74 0.0 0 0 87.62 105.20
  L 52.78 105.20"
/>
<path stroke="#8fa0f6" vector-effect="non-scaling-stroke" d="
  M 58.90 159.12
  A 0.97 0.97 0.0 0 0 59.65 160.70
  L 141.01 160.56
  A 0.97 0.97 0.0 0 0 141.76 158.97
  L 100.99 109.20
  A 0.97 0.97 0.0 0 0 99.49 109.20
  L 58.90 159.12"
/>
</g>
<path fill="#1f40ed" d="
  M 200.00 0.00
  L 200.00 200.00
  L 0.00 200.00
  L 0.00 0.00
  L 200.00 0.00
  Z
  M 41.64 100.00
  Q 41.64 169.46 41.67 170.29
  A 0.65 0.65 0.0 0 0 42.32 171.00
  L 157.60 171.08
  A 0.98 0.98 0.0 0 0 158.58 170.10
  L 158.58 164.09
  A 3.51 3.50 -64.8 0 0 157.78 161.86
  Q 135.75 135.13 107.52 100.76
  Q 107.28 100.46 107.28 100.00
  Q 107.28 99.54 107.52 99.24
  Q 135.75 64.86 157.77 38.13
  A 3.51 3.50 64.8 0 0 158.57 35.90
  L 158.57 29.89
  A 0.98 0.98 0.0 0 0 157.59 28.91
  L 42.31 29.01
  A 0.65 0.65 0.0 0 0 41.66 29.71
  Q 41.63 30.55 41.64 100.00
  Z"
/>
<path fill="#ffffff" d="
  M 107.28 100.00
  Q 107.28 100.46 107.52 100.76
  Q 135.75 135.13 157.78 161.86
  A 3.51 3.50 -64.8 0 1 158.58 164.09
  L 158.58 170.10
  A 0.98 0.98 0.0 0 1 157.60 171.08
  L 42.32 171.00
  A 0.65 0.65 0.0 0 1 41.67 170.29
  Q 41.64 169.46 41.64 100.00
  Q 41.63 30.55 41.66 29.71
  A 0.65 0.65 0.0 0 1 42.31 29.01
  L 157.59 28.91
  A 0.98 0.98 0.0 0 1 158.57 29.89
  L 158.57 35.90
  A 3.51 3.50 64.8 0 1 157.77 38.13
  Q 135.75 64.86 107.52 99.24
  Q 107.28 99.54 107.28 100.00
  Z
  M 141.77 41.02
  A 0.96 0.96 0.0 0 0 141.03 39.45
  L 59.67 39.31
  A 0.96 0.96 0.0 0 0 58.93 40.88
  L 99.52 90.81
  A 0.96 0.96 0.0 0 0 101.00 90.81
  L 141.77 41.02
  Z
  M 52.05 93.97
  A 0.82 0.82 0.0 0 0 52.87 94.79
  L 87.42 94.79
  A 0.82 0.82 0.0 0 0 88.06 93.45
  L 53.51 50.69
  A 0.82 0.82 0.0 0 0 52.05 51.21
  L 52.05 93.97
  Z
  M 52.78 105.20
  A 0.74 0.74 0.0 0 0 52.04 105.94
  L 52.04 148.98
  A 0.74 0.74 0.0 0 0 53.36 149.45
  L 88.19 106.41
  A 0.74 0.74 0.0 0 0 87.62 105.20
  L 52.78 105.20
  Z
  M 58.90 159.12
  A 0.97 0.97 0.0 0 0 59.65 160.70
  L 141.01 160.56
  A 0.97 0.97 0.0 0 0 141.76 158.97
  L 100.99 109.20
  A 0.97 0.97 0.0 0 0 99.49 109.20
  L 58.90 159.12
  Z"
/>
<path fill="#1f40ed" d="
  M 141.77 41.02
  L 101.00 90.81
  A 0.96 0.96 0.0 0 1 99.52 90.81
  L 58.93 40.88
  A 0.96 0.96 0.0 0 1 59.67 39.31
  L 141.03 39.45
  A 0.96 0.96 0.0 0 1 141.77 41.02
  Z"
/>
<path fill="#1f40ed" d="
  M 52.05 93.97
  L 52.05 51.21
  A 0.82 0.82 0.0 0 1 53.51 50.69
  L 88.06 93.45
  A 0.82 0.82 0.0 0 1 87.42 94.79
  L 52.87 94.79
  A 0.82 0.82 0.0 0 1 52.05 93.97
  Z"
/>
<path fill="#1f40ed" d="
  M 52.78 105.20
  L 87.62 105.20
  A 0.74 0.74 0.0 0 1 88.19 106.41
  L 53.36 149.45
  A 0.74 0.74 0.0 0 1 52.04 148.98
  L 52.04 105.94
  A 0.74 0.74 0.0 0 1 52.78 105.20
  Z"
/>
<path fill="#1f40ed" d="
  M 58.90 159.12
  L 99.49 109.20
  A 0.97 0.97 0.0 0 1 100.99 109.20
  L 141.76 158.97
  A 0.97 0.97 0.0 0 1 141.01 160.56
  L 59.65 160.70
  A 0.97 0.97 0.0 0 1 58.90 159.12
  Z"
/>
</svg>
